<?xml version="1.0" standalone="no"?>
<!DOCTYPE svg PUBLIC "-//W3C//DTD SVG 1.1//EN" "http://www.w3.org/Graphics/SVG/1.1/DTD/svg11.dtd">
<svg xmlns="http://www.w3.org/2000/svg" xmlns:xlink="http://www.w3.org/1999/xlink" id="Calque_1" data-name="Calque 1" viewBox="0 0 5224.18 737.58" width="5224.18017578125" height="737.5800170898438">
  <defs>
    <style>
      .cls-1 {
        fill: url(#Dégradé_sans_nom_38-2);
      }

      .cls-1, .cls-2, .cls-3, .cls-4, .cls-5 {
        stroke-width: 0px;
      }

      .cls-3 {
        fill: #1a0033;
      }

      .cls-4 {
        fill: #7f00ff;
      }

      .cls-5 {
        fill: url(#Dégradé_sans_nom_38);
      }
    </style>
    <linearGradient id="Dégradé_sans_nom_38" data-name="Dégradé sans nom 38" x1="216.27" y1="263.6" x2="216.27" y2="401.88" gradientUnits="userSpaceOnUse">
      <stop offset="0" stop-color="#7f00ff"/>
      <stop offset="1" stop-color="#1a0033"/>
    </linearGradient>
    <linearGradient id="Dégradé_sans_nom_38-2" data-name="Dégradé sans nom 38" x1="580.7" y1="263.72" x2="580.7" y2="401.86" xlink:href="#Dégradé_sans_nom_38"/>
  </defs>
  <g>
    <path class="cls-2" d="M899.31,562.23c-15.03,0-29.35-2.35-42.97-7.04-13.62-4.69-25.48-11.27-35.57-19.72-10.1-8.45-17.5-18.19-22.19-29.23-2.35-4.93-2.29-9.51.18-13.73s6.63-6.92,12.5-8.1c4.23-.93,8.39-.29,12.5,1.94,4.1,2.24,7.22,5.58,9.33,10.04,2.82,5.87,7.45,11.27,13.91,16.2,6.45,4.93,14.26,8.93,23.42,11.97,9.16,3.05,18.78,4.58,28.88,4.58,11.27,0,21.66-1.76,31.17-5.28,9.51-3.52,17.2-8.63,23.07-15.32,5.87-6.69,8.8-14.97,8.8-24.83,0-12.44-4.88-23.6-14.62-33.46-9.74-9.86-25.77-15.96-48.07-18.31-29.12-2.82-52.01-11.39-68.68-25.71-16.67-14.32-25-32.05-25-53.18,0-15.5,4.34-28.64,13.03-39.45,8.68-10.8,20.48-19.02,35.4-24.65,14.91-5.63,31.52-8.45,49.83-8.45,14.32,0,26.82,2,37.51,5.99,10.68,4,20.01,9.51,28,16.55,7.98,7.04,14.91,15.38,20.78,25,3.29,5.17,4.63,10.04,4.05,14.62-.59,4.58-2.88,8.16-6.87,10.74-4.46,2.82-9.28,3.41-14.44,1.76-5.17-1.64-9.04-4.69-11.62-9.16-3.76-6.81-8.34-12.56-13.73-17.26-5.41-4.69-11.74-8.39-19.02-11.09-7.28-2.7-15.85-4.05-25.71-4.05-17.38-.23-31.93,2.99-43.67,9.69-11.74,6.69-17.61,16.97-17.61,30.82,0,7.04,1.82,13.8,5.46,20.25,3.64,6.46,10.33,12.04,20.07,16.73,9.74,4.7,23.77,7.99,42.09,9.86,27.94,2.82,49.71,11.33,65.33,25.53,15.61,14.21,23.42,32.93,23.42,56.17,0,13.38-2.76,25.01-8.28,34.87-5.52,9.86-12.92,18.14-22.19,24.83-9.28,6.69-19.85,11.68-31.7,14.97-11.86,3.28-24.13,4.93-36.81,4.93Z"/>
    <path class="cls-2" d="M1042.65,403.39c-4.93,0-8.93-1.41-11.97-4.23-3.06-2.82-4.58-6.34-4.58-10.57,0-4.69,1.52-8.45,4.58-11.27,3.05-2.82,7.04-4.23,11.97-4.23h81.36c4.93,0,8.92,1.41,11.97,4.23,3.05,2.82,4.58,6.58,4.58,11.27,0,4.23-1.53,7.75-4.58,10.57-3.05,2.82-7.04,4.23-11.97,4.23h-81.36ZM1120.84,558.71c-11.74,0-22.31-2.99-31.7-8.98-9.39-5.99-16.79-14.14-22.19-24.48-5.41-10.33-8.1-21.95-8.1-34.87v-168c0-5.16,1.64-9.39,4.93-12.68,3.28-3.29,7.51-4.93,12.68-4.93s9.39,1.65,12.68,4.93c3.28,3.29,4.93,7.52,4.93,12.68v168c0,9.39,2.58,17.26,7.75,23.6,5.16,6.34,11.5,9.51,19.02,9.51h11.97c4.23,0,7.8,1.65,10.74,4.93,2.93,3.29,4.4,7.52,4.4,12.68s-1.94,9.39-5.81,12.68c-3.88,3.29-8.87,4.93-14.97,4.93h-6.34Z"/>
    <path class="cls-2" d="M1209.59,558.71c-5.63,0-9.98-1.46-13.03-4.4-3.05-2.93-4.58-7.34-4.58-13.21v-157.43c0-5.63,1.52-9.98,4.58-13.03,3.05-3.05,7.4-4.58,13.03-4.58s10.27,1.47,13.21,4.4c2.93,2.94,4.4,7.34,4.4,13.21v157.43c0,5.63-1.47,9.98-4.4,13.03-2.94,3.05-7.34,4.58-13.21,4.58ZM1209.24,438.26c0-14.09,3.46-26.71,10.39-37.86,6.92-11.15,16.25-20.01,28-26.59,11.74-6.57,24.65-9.86,38.74-9.86s24.59,2.29,31.52,6.87c6.92,4.58,9.57,10.04,7.92,16.38-.7,3.29-2.06,5.81-4.05,7.57-2,1.76-4.29,2.88-6.87,3.35-2.59.47-5.4.35-8.45-.35-15.03-3.05-28.53-3.29-40.5-.71-11.97,2.59-21.43,7.4-28.35,14.44-6.93,7.05-10.39,15.97-10.39,26.77h-17.96Z"/>
    <path class="cls-2" d="M1439.57,560.12c-19.49,0-36.8-4.17-51.95-12.5-15.14-8.33-27-19.84-35.57-34.51-8.58-14.67-12.86-31.52-12.86-50.54s4.05-36.22,12.15-50.89c8.1-14.67,19.31-26.18,33.63-34.51,14.32-8.33,30.76-12.5,49.31-12.5s34.04,4.05,47.19,12.15c13.15,8.1,23.19,19.25,30.11,33.46,6.92,14.21,10.39,30.59,10.39,49.13,0,4.46-1.53,8.16-4.58,11.09-3.06,2.94-6.93,4.4-11.62,4.4h-141.93v-28.18h140.88l-14.44,9.86c-.24-11.74-2.59-22.24-7.04-31.52-4.46-9.27-10.8-16.61-19.02-22.01-8.22-5.4-18.2-8.1-29.94-8.1-13.38,0-24.83,2.94-34.34,8.8-9.51,5.87-16.73,13.91-21.66,24.13-4.93,10.21-7.39,21.78-7.39,34.69s2.93,24.42,8.8,34.51c5.87,10.1,13.97,18.08,24.3,23.95,10.33,5.87,22.19,8.8,35.57,8.8,7.27,0,14.73-1.35,22.36-4.05,7.63-2.7,13.79-5.81,18.49-9.33,3.52-2.58,7.34-3.93,11.45-4.05,4.1-.12,7.69,1.12,10.74,3.7,3.99,3.52,6.1,7.4,6.34,11.62.23,4.23-1.65,7.87-5.63,10.92-7.99,6.34-17.91,11.51-29.76,15.5-11.86,4-23.19,5.99-33.99,5.99Z"/>
    <path class="cls-2" d="M1641.03,560.12c-17.14,0-32.52-4.28-46.14-12.85-13.62-8.57-24.36-20.19-32.23-34.87-7.87-14.67-11.8-31.29-11.8-49.83s4.28-35.22,12.86-50.01c8.57-14.79,20.19-26.47,34.87-35.04,14.67-8.57,31.17-12.85,49.48-12.85s34.75,4.29,49.31,12.85c14.56,8.57,26.12,20.25,34.69,35.04,8.57,14.79,12.86,31.47,12.86,50.01h-13.73c0,18.55-3.94,35.16-11.8,49.83-7.87,14.68-18.61,26.3-32.23,34.87-13.62,8.57-29,12.85-46.14,12.85ZM1648.07,528.42c11.97,0,22.66-2.87,32.05-8.63,9.39-5.75,16.78-13.61,22.19-23.6,5.4-9.98,8.1-21.19,8.1-33.63s-2.7-24.01-8.1-33.99c-5.4-9.98-12.8-17.84-22.19-23.6-9.39-5.75-20.07-8.63-32.05-8.63s-22.36,2.88-31.87,8.63c-9.51,5.76-17.03,13.62-22.54,23.6-5.52,9.98-8.28,21.31-8.28,33.99s2.76,23.66,8.28,33.63c5.51,9.98,13.03,17.85,22.54,23.6,9.51,5.76,20.13,8.63,31.87,8.63ZM1726.96,559.06c-5.17,0-9.45-1.7-12.86-5.11-3.41-3.4-5.11-7.69-5.11-12.86v-53.89l6.69-37.33,29.23,12.68v78.54c0,5.17-1.71,9.45-5.11,12.86-3.41,3.4-7.69,5.11-12.86,5.11Z"/>
    <path class="cls-2" d="M1816.41,559.06c-5.17,0-9.45-1.7-12.86-5.11-3.4-3.4-5.11-7.69-5.11-12.86v-156.73c0-5.4,1.7-9.74,5.11-13.03,3.4-3.29,7.69-4.93,12.86-4.93s9.74,1.65,13.03,4.93c3.28,3.29,4.93,7.63,4.93,13.03v156.73c0,5.17-1.65,9.45-4.93,12.86-3.29,3.4-7.63,5.11-13.03,5.11ZM1934.05,559.06c-5.17,0-9.45-1.7-12.86-5.11-3.4-3.4-5.11-7.69-5.11-12.86v-100.73c0-14.79-3.64-25.76-10.92-32.93-7.28-7.16-16.79-10.74-28.53-10.74s-22.31,4.23-30.29,12.68c-7.99,8.45-11.97,19.25-11.97,32.4h-22.19c0-15.26,3.05-28.7,9.16-40.33,6.1-11.62,14.55-20.72,25.36-27.3,10.8-6.57,23.12-9.86,36.98-9.86s25.24,2.94,35.57,8.8c10.33,5.87,18.37,14.5,24.12,25.89,5.75,11.39,8.63,25.18,8.63,41.38v100.73c0,5.17-1.65,9.45-4.93,12.86-3.29,3.4-7.63,5.11-13.03,5.11ZM2051.33,559.06c-5.17,0-9.45-1.7-12.86-5.11-3.41-3.4-5.11-7.69-5.11-12.86v-100.73c0-14.79-3.64-25.76-10.92-32.93-7.28-7.16-16.79-10.74-28.53-10.74s-22.25,4.23-30.11,12.68c-7.87,8.45-11.8,19.25-11.8,32.4h-29.23c0-15.26,3.28-28.7,9.86-40.33,6.57-11.62,15.79-20.72,27.65-27.3,11.85-6.57,25.41-9.86,40.68-9.86,13.38,0,25.24,2.94,35.57,8.8,10.33,5.87,18.37,14.5,24.13,25.89,5.75,11.39,8.63,25.18,8.63,41.38v100.73c0,5.17-1.65,9.45-4.93,12.86-3.29,3.4-7.63,5.11-13.03,5.11Z"/>
    <path class="cls-2" d="M2224.6,558.71c-6.58,0-11.62-2.82-15.14-8.45-3.52-5.63-3.87-11.62-1.06-17.96l98.97-236.32c3.52-8.22,9.27-12.33,17.26-12.33,8.45,0,14.2,4.11,17.26,12.33l99.32,237.03c2.58,6.57,2.17,12.5-1.23,17.79-3.41,5.28-8.51,7.92-15.32,7.92-3.52,0-6.87-1-10.04-2.99-3.17-1.99-5.46-4.75-6.87-8.28l-87.34-216.95h9.86l-88.75,216.95c-1.65,3.76-4.05,6.57-7.22,8.45-3.17,1.88-6.4,2.82-9.69,2.82ZM2243.27,498.13l14.09-30.29h138.06l14.09,30.29h-166.24Z"/>
    <path class="cls-2" d="M2497.55,559.06c-5.17,0-9.45-1.7-12.86-5.11-3.4-3.4-5.11-7.69-5.11-12.86v-157.08c0-5.4,1.7-9.74,5.11-13.03,3.4-3.28,7.69-4.93,12.86-4.93s9.74,1.65,13.03,4.93c3.28,3.29,4.93,7.63,4.93,13.03v157.08c0,5.17-1.65,9.45-4.93,12.86-3.29,3.4-7.63,5.11-13.03,5.11ZM2642.3,559.06c-5.17,0-9.45-1.7-12.86-5.11-3.41-3.4-5.11-7.69-5.11-12.86v-86.64c0-13.38-2.46-24.3-7.39-32.75-4.93-8.45-11.57-14.73-19.9-18.84-8.34-4.1-17.91-6.16-28.71-6.16-9.86,0-18.79,2-26.77,5.99-7.99,4-14.33,9.33-19.02,16.03-4.7,6.69-7.05,14.38-7.05,23.07h-22.19c0-14.79,3.58-28,10.74-39.62,7.16-11.62,16.96-20.84,29.41-27.65,12.44-6.81,26.41-10.21,41.91-10.21s30.69,3.47,43.49,10.39c12.79,6.93,22.89,17.08,30.29,30.46,7.4,13.38,11.09,29.82,11.09,49.31v86.64c0,5.17-1.71,9.45-5.11,12.86s-7.69,5.11-12.85,5.11Z"/>
    <path class="cls-2" d="M2741.26,334.72c-6.34,0-11.8-2.29-16.38-6.87-4.58-4.58-6.87-10.04-6.87-16.38s2.29-11.8,6.87-16.38c4.58-4.58,10.04-6.87,16.38-6.87s11.8,2.29,16.38,6.87c4.58,4.58,6.87,10.04,6.87,16.38s-2.29,11.8-6.87,16.38-10.04,6.87-16.38,6.87ZM2741.26,558.71c-5.17,0-9.45-1.7-12.85-5.11-3.41-3.4-5.11-7.69-5.11-12.85v-156.73c0-5.4,1.7-9.74,5.11-13.03,3.4-3.28,7.69-4.93,12.85-4.93s9.74,1.65,13.03,4.93c3.29,3.29,4.93,7.63,4.93,13.03v156.73c0,5.17-1.65,9.45-4.93,12.85-3.29,3.41-7.63,5.11-13.03,5.11Z"/>
    <path class="cls-2" d="M2844.1,559.06c-5.17,0-9.45-1.7-12.86-5.11-3.4-3.4-5.11-7.69-5.11-12.86v-156.73c0-5.4,1.7-9.74,5.11-13.03,3.4-3.29,7.69-4.93,12.86-4.93s9.74,1.65,13.03,4.93c3.28,3.29,4.93,7.63,4.93,13.03v156.73c0,5.17-1.65,9.45-4.93,12.86-3.29,3.4-7.63,5.11-13.03,5.11ZM2961.73,559.06c-5.17,0-9.45-1.7-12.86-5.11-3.4-3.4-5.11-7.69-5.11-12.86v-100.73c0-14.79-3.64-25.76-10.92-32.93-7.28-7.16-16.79-10.74-28.53-10.74s-22.31,4.23-30.29,12.68c-7.99,8.45-11.97,19.25-11.97,32.4h-22.19c0-15.26,3.05-28.7,9.16-40.33,6.1-11.62,14.55-20.72,25.36-27.3,10.8-6.57,23.12-9.86,36.98-9.86s25.24,2.94,35.57,8.8c10.33,5.87,18.37,14.5,24.12,25.89,5.75,11.39,8.63,25.18,8.63,41.38v100.73c0,5.17-1.65,9.45-4.93,12.86-3.29,3.4-7.63,5.11-13.03,5.11ZM3079.01,559.06c-5.17,0-9.45-1.7-12.86-5.11-3.41-3.4-5.11-7.69-5.11-12.86v-100.73c0-14.79-3.64-25.76-10.92-32.93-7.28-7.16-16.79-10.74-28.53-10.74s-22.25,4.23-30.11,12.68c-7.87,8.45-11.8,19.25-11.8,32.4h-29.23c0-15.26,3.28-28.7,9.86-40.33,6.57-11.62,15.79-20.72,27.65-27.3,11.85-6.57,25.41-9.86,40.68-9.86,13.38,0,25.24,2.94,35.57,8.8,10.33,5.87,18.37,14.5,24.13,25.89,5.75,11.39,8.63,25.18,8.63,41.38v100.73c0,5.17-1.65,9.45-4.93,12.86-3.29,3.4-7.63,5.11-13.03,5.11Z"/>
    <path class="cls-2" d="M3236.79,560.12c-17.14,0-32.52-4.28-46.14-12.85-13.62-8.57-24.36-20.19-32.23-34.87-7.87-14.67-11.8-31.29-11.8-49.83s4.28-35.22,12.86-50.01c8.57-14.79,20.19-26.47,34.87-35.04,14.67-8.57,31.17-12.85,49.48-12.85s34.75,4.29,49.31,12.85c14.56,8.57,26.12,20.25,34.69,35.04,8.57,14.79,12.86,31.47,12.86,50.01h-13.73c0,18.55-3.94,35.16-11.8,49.83-7.87,14.68-18.61,26.3-32.23,34.87-13.62,8.57-29,12.85-46.14,12.85ZM3243.83,528.42c11.97,0,22.66-2.87,32.05-8.63,9.39-5.75,16.78-13.61,22.19-23.6,5.4-9.98,8.1-21.19,8.1-33.63s-2.7-24.01-8.1-33.99c-5.4-9.98-12.8-17.84-22.19-23.6-9.39-5.75-20.07-8.63-32.05-8.63s-22.36,2.88-31.87,8.63c-9.51,5.76-17.03,13.62-22.54,23.6-5.52,9.98-8.28,21.31-8.28,33.99s2.76,23.66,8.28,33.63c5.51,9.98,13.03,17.85,22.54,23.6,9.51,5.76,20.13,8.63,31.87,8.63ZM3322.73,559.06c-5.17,0-9.45-1.7-12.86-5.11-3.41-3.4-5.11-7.69-5.11-12.86v-53.89l6.69-37.33,29.23,12.68v78.54c0,5.17-1.71,9.45-5.11,12.86-3.41,3.4-7.69,5.11-12.86,5.11Z"/>
    <path class="cls-2" d="M3386.12,403.39c-4.93,0-8.93-1.41-11.97-4.23-3.06-2.82-4.58-6.34-4.58-10.57,0-4.69,1.52-8.45,4.58-11.27,3.05-2.82,7.04-4.23,11.97-4.23h81.36c4.93,0,8.92,1.41,11.97,4.23,3.05,2.82,4.58,6.58,4.58,11.27,0,4.23-1.53,7.75-4.58,10.57-3.05,2.82-7.04,4.23-11.97,4.23h-81.36ZM3464.3,558.71c-11.74,0-22.31-2.99-31.7-8.98-9.39-5.99-16.79-14.14-22.19-24.48-5.41-10.33-8.1-21.95-8.1-34.87v-168c0-5.16,1.64-9.39,4.93-12.68,3.28-3.29,7.51-4.93,12.68-4.93s9.39,1.65,12.68,4.93c3.28,3.29,4.93,7.52,4.93,12.68v168c0,9.39,2.58,17.26,7.75,23.6,5.16,6.34,11.5,9.51,19.02,9.51h11.97c4.23,0,7.8,1.65,10.74,4.93,2.93,3.29,4.4,7.52,4.4,12.68s-1.94,9.39-5.81,12.68c-3.88,3.29-8.87,4.93-14.97,4.93h-6.34Z"/>
    <path class="cls-2" d="M3556.93,334.72c-6.34,0-11.8-2.29-16.38-6.87-4.58-4.58-6.87-10.04-6.87-16.38s2.29-11.8,6.87-16.38c4.58-4.58,10.04-6.87,16.38-6.87s11.8,2.29,16.38,6.87c4.58,4.58,6.87,10.04,6.87,16.38s-2.29,11.8-6.87,16.38-10.04,6.87-16.38,6.87ZM3556.93,558.71c-5.17,0-9.45-1.7-12.85-5.11-3.41-3.4-5.11-7.69-5.11-12.85v-156.73c0-5.4,1.7-9.74,5.11-13.03,3.4-3.28,7.69-4.93,12.85-4.93s9.74,1.65,13.03,4.93c3.29,3.29,4.93,7.63,4.93,13.03v156.73c0,5.17-1.65,9.45-4.93,12.85-3.29,3.41-7.63,5.11-13.03,5.11Z"/>
    <path class="cls-2" d="M3729.14,560.12c-19.02,0-35.81-4.17-50.36-12.5-14.56-8.33-26.01-19.84-34.34-34.51-8.34-14.67-12.5-31.52-12.5-50.54s4.17-36.22,12.5-50.89c8.33-14.67,19.78-26.18,34.34-34.51,14.56-8.33,31.35-12.5,50.36-12.5s35.45,4.17,50.01,12.5c14.55,8.34,26,19.84,34.34,34.51,8.33,14.68,12.5,31.64,12.5,50.89s-4.11,35.87-12.33,50.54c-8.22,14.68-19.61,26.18-34.16,34.51-14.56,8.34-31.35,12.5-50.36,12.5ZM3729.14,528.42c12.21,0,23.01-2.82,32.4-8.45,9.39-5.63,16.73-13.38,22.01-23.24,5.28-9.86,7.92-21.25,7.92-34.16s-2.64-24.36-7.92-34.34c-5.28-9.98-12.62-17.79-22.01-23.42-9.4-5.63-20.2-8.45-32.4-8.45s-23.01,2.82-32.4,8.45c-9.39,5.63-16.79,13.44-22.19,23.42-5.41,9.98-8.1,21.43-8.1,34.34s2.7,24.3,8.1,34.16c5.4,9.86,12.79,17.61,22.19,23.24,9.39,5.63,20.19,8.45,32.4,8.45Z"/>
    <path class="cls-2" d="M3897.49,559.06c-5.17,0-9.45-1.7-12.86-5.11-3.4-3.4-5.11-7.69-5.11-12.86v-157.08c0-5.4,1.7-9.74,5.11-13.03,3.4-3.28,7.69-4.93,12.86-4.93s9.74,1.65,13.03,4.93c3.28,3.29,4.93,7.63,4.93,13.03v157.08c0,5.17-1.65,9.45-4.93,12.86-3.29,3.4-7.63,5.11-13.03,5.11ZM4042.24,559.06c-5.17,0-9.45-1.7-12.86-5.11-3.41-3.4-5.11-7.69-5.11-12.86v-86.64c0-13.38-2.46-24.3-7.39-32.75-4.93-8.45-11.57-14.73-19.9-18.84-8.34-4.1-17.91-6.16-28.71-6.16-9.86,0-18.79,2-26.77,5.99-7.99,4-14.33,9.33-19.02,16.03-4.7,6.69-7.05,14.38-7.05,23.07h-22.19c0-14.79,3.58-28,10.74-39.62,7.16-11.62,16.96-20.84,29.41-27.65,12.44-6.81,26.41-10.21,41.91-10.21s30.69,3.47,43.49,10.39c12.79,6.93,22.89,17.08,30.29,30.46,7.4,13.38,11.09,29.82,11.09,49.31v86.64c0,5.17-1.71,9.45-5.11,12.86s-7.69,5.11-12.85,5.11Z"/>
    <path class="cls-2" d="M4228.55,558.71c-5.4,0-9.69-1.76-12.86-5.28s-4.93-7.57-5.28-12.15c-.35-4.58.88-8.63,3.7-12.15l172.22-213.08h-154.26c-5.87,0-10.27-1.47-13.21-4.4-2.94-2.93-4.29-6.63-4.05-11.1-.24-4.93,1.41-8.98,4.93-12.15,3.52-3.17,7.86-4.75,13.03-4.75h181.73c5.4,0,9.74,1.65,13.03,4.93,3.28,3.29,5.16,7.22,5.63,11.8.47,4.58-.83,8.63-3.88,12.15l-172.93,213.78h158.14c5.4,0,9.74,1.58,13.03,4.75,3.28,3.17,4.93,6.87,4.93,11.09,0,5.17-1.65,9.22-4.93,12.15-3.29,2.94-7.63,4.4-13.03,4.4h-185.96Z"/>
    <path class="cls-2" d="M4539.88,560.12c-19.02,0-35.81-4.17-50.36-12.5-14.56-8.33-26.01-19.84-34.34-34.51-8.34-14.67-12.5-31.52-12.5-50.54s4.17-36.22,12.5-50.89c8.33-14.67,19.78-26.18,34.34-34.51,14.56-8.33,31.35-12.5,50.36-12.5s35.45,4.17,50.01,12.5c14.55,8.34,26,19.84,34.34,34.51,8.33,14.68,12.5,31.64,12.5,50.89s-4.11,35.87-12.33,50.54c-8.22,14.68-19.61,26.18-34.16,34.51-14.56,8.34-31.35,12.5-50.36,12.5ZM4539.88,528.42c12.21,0,23.01-2.82,32.4-8.45,9.39-5.63,16.73-13.38,22.01-23.24,5.28-9.86,7.92-21.25,7.92-34.16s-2.64-24.36-7.92-34.34c-5.28-9.98-12.62-17.79-22.01-23.42-9.4-5.63-20.2-8.45-32.4-8.45s-23.01,2.82-32.4,8.45c-9.39,5.63-16.79,13.44-22.19,23.42-5.41,9.98-8.1,21.43-8.1,34.34s2.7,24.3,8.1,34.16c5.4,9.86,12.79,17.61,22.19,23.24,9.39,5.63,20.19,8.45,32.4,8.45Z"/>
    <path class="cls-2" d="M4708.23,559.06c-5.17,0-9.45-1.7-12.86-5.11-3.4-3.4-5.11-7.69-5.11-12.86v-157.08c0-5.4,1.7-9.74,5.11-13.03,3.4-3.28,7.69-4.93,12.86-4.93s9.74,1.65,13.03,4.93c3.28,3.29,4.93,7.63,4.93,13.03v157.08c0,5.17-1.65,9.45-4.93,12.86-3.29,3.4-7.63,5.11-13.03,5.11ZM4852.98,559.06c-5.17,0-9.45-1.7-12.86-5.11-3.41-3.4-5.11-7.69-5.11-12.86v-86.64c0-13.38-2.46-24.3-7.39-32.75-4.93-8.45-11.57-14.73-19.9-18.84-8.34-4.1-17.91-6.16-28.71-6.16-9.86,0-18.79,2-26.77,5.99-7.99,4-14.33,9.33-19.02,16.03-4.7,6.69-7.05,14.38-7.05,23.07h-22.19c0-14.79,3.58-28,10.74-39.62,7.16-11.62,16.96-20.84,29.41-27.65,12.44-6.81,26.41-10.21,41.91-10.21s30.69,3.47,43.49,10.39c12.79,6.93,22.89,17.08,30.29,30.46,7.4,13.38,11.09,29.82,11.09,49.31v86.64c0,5.17-1.71,9.45-5.11,12.86s-7.69,5.11-12.85,5.11Z"/>
    <path class="cls-2" d="M5020.97,560.12c-19.49,0-36.8-4.17-51.95-12.5-15.14-8.33-27-19.84-35.57-34.51-8.58-14.67-12.86-31.52-12.86-50.54s4.05-36.22,12.15-50.89c8.1-14.67,19.31-26.18,33.63-34.51,14.32-8.33,30.76-12.5,49.31-12.5s34.04,4.05,47.19,12.15c13.15,8.1,23.19,19.25,30.11,33.46,6.92,14.21,10.39,30.59,10.39,49.13,0,4.46-1.53,8.16-4.58,11.09-3.06,2.94-6.93,4.4-11.62,4.4h-141.93v-28.18h140.88l-14.44,9.86c-.24-11.74-2.59-22.24-7.04-31.52-4.46-9.27-10.8-16.61-19.02-22.01-8.22-5.4-18.2-8.1-29.94-8.1-13.38,0-24.83,2.94-34.34,8.8-9.51,5.87-16.73,13.91-21.66,24.13-4.93,10.21-7.39,21.78-7.39,34.69s2.93,24.42,8.8,34.51c5.87,10.1,13.97,18.08,24.3,23.95,10.33,5.87,22.19,8.8,35.57,8.8,7.27,0,14.73-1.35,22.36-4.05,7.63-2.7,13.79-5.81,18.49-9.33,3.52-2.58,7.34-3.93,11.45-4.05,4.1-.12,7.69,1.12,10.74,3.7,3.99,3.52,6.1,7.4,6.34,11.62.23,4.23-1.65,7.87-5.63,10.92-7.99,6.34-17.91,11.51-29.76,15.5-11.86,4-23.19,5.99-33.99,5.99Z"/>
  </g>
  <g>
    <path class="cls-5" d="M120.79,263.6c5.67,0,11.34,0,17.01.06,3.31.06,6.69.45,10,.64.7.06,1.47.06,2.17,0,3.95-.38,7.84,0,11.72.7,1.47.25,2.99,0,4.46.13,1.21.06,2.48.45,3.7.57,1.21.13,2.48.06,3.7.25,2.74.38,5.48.96,8.28,1.34,1.98.32,4.01.45,5.93.76,2.74.51,5.48,1.15,8.22,1.85,2.55.64,5.1,1.21,7.58,2.04,4.65,1.47,9.37,2.99,13.95,4.71,10.9,3.95,20.96,9.56,30.27,16.38,4.52,3.31,8.86,6.88,13.06,10.58,6.63,5.8,12.49,12.3,17.9,19.24,7.52,9.62,13.89,20.01,19.11,31.09,2.8,5.93,5.29,12.04,7.33,18.29,1.72,5.29,3.38,10.64,4.33,16.12.64,3.57,1.47,7.07,2.1,10.58.19.96.51,1.91-.13,2.87-1.02.32-1.78-.32-2.55-.76-6.95-3.89-13.89-7.84-20.84-11.79-6.5-3.76-13.06-7.39-20.07-10.26-5.93-2.42-11.92-4.65-17.84-6.88-8.41-3.12-16.88-6.24-25.36-9.3-7.33-2.68-14.34-5.93-21.22-9.62-7.9-4.21-15.48-9.05-22.56-14.53-5.48-4.21-10.9-8.54-15.99-13.19-5.22-4.71-10.13-9.81-14.85-15.04-6.75-7.39-12.81-15.42-18.22-23.89-3.76-5.86-7.14-12.04-10.07-18.35-.32-.7-.83-1.27-1.27-1.98.13-.77.13-1.66.13-2.61h0Z"/>
    <path class="cls-1" d="M676.08,266.78c-4.46,10.26-10.13,19.82-16.82,28.74-3.95,5.29-8.09,10.45-12.49,15.36-4.52,5.03-9.3,9.88-14.27,14.53-6.56,6.12-13.57,11.72-20.96,16.88-7.84,5.48-15.99,10.45-24.66,14.53-7.33,3.5-14.85,6.5-22.49,9.18-7.84,2.8-15.55,5.67-23.38,8.41-13.57,4.71-26.19,11.41-38.48,18.73-4.84,2.87-9.75,5.48-14.65,8.22-.13.06-.25.13-.38.19-.57.13-1.21.45-1.66.25-.7-.32-.51-1.08-.38-1.72.76-3.82,1.53-7.65,2.29-11.53,1.53-8.22,4.14-16.12,7.07-23.89,3.76-9.88,8.54-19.24,14.21-28.16,3.5-5.61,7.33-10.96,11.53-16.06,9.11-11.09,19.43-20.84,31.28-28.93,8.16-5.61,16.82-10.32,26.06-14.02,6.24-2.48,12.55-4.65,19.05-6.24,4.01-.96,8.09-1.98,12.17-2.87,3.31-.7,6.63-1.34,9.94-1.72,1.98-.19,3.95-.76,5.99-.83,2.74,0,5.42-.89,8.16-.83,3.7,0,7.26-.7,10.96-.83,1.08-.06,2.23.25,3.31.25,2.42-.13,4.84-.32,7.26-.51.32,0,.64-.13.96-.13,6.82,0,13.64-.06,20.39-.06v3.06h0Z"/>
    <path class="cls-3" d="M387.32,617.54c-1.85-.57-3.7-1.15-5.61-1.66-8.22-2.29-15.61-6.31-22.11-11.85-7.77-6.63-13.64-14.65-17.27-24.21-1.27-3.38-2.29-6.82-2.93-10.39-.76-4.33-1.27-8.67-1.21-13,0-1.4.32-2.87.45-4.27.06-.89,0-1.78.13-2.68,1.66-11.98,6.56-22.56,14.59-31.6,6.69-7.52,14.72-13.32,24.4-16.63,2.1-.7,4.14-1.53,6.24-2.04,2.04-.51,4.08-.64,6.18-.96.7-.13,1.4-.45,2.1-.45,2.99-.19,6.05-.38,9.05-.32,1.72,0,3.5.7,5.22.7,1.78.06,3.5.25,5.22.76,1.34.45,2.87.51,4.21.96,7.26,2.23,14.02,5.54,20.01,10.32,8.35,6.69,14.72,14.85,18.73,24.79,1.85,4.52,3.19,9.18,3.82,14.02.57,4.33.89,8.73.45,13.19-.51,5.42-1.47,10.7-3.31,15.87-2.17,5.93-5.1,11.41-8.92,16.44-6.63,8.6-14.85,15.1-24.91,19.18-3.63,1.47-7.52,2.36-11.28,3.5-.25.06-.45.19-.7.32h-22.56Z"/>
    <path class="cls-4" d="M403.18,120.17c4.27,1.78,7.45,4.71,9.11,9.11,1.34,3.44,2.04,7.01,1.15,10.77-.13.51.13,1.02.06,1.53-.19,2.1-.19,4.21-.64,6.24-.25,1.02,0,1.91-.13,2.87-.25,2.17-.64,4.27-.89,6.44-.06.76.13,1.59.06,2.36-.25,2.1-.57,4.14-.83,6.24-.06.83.13,1.72.06,2.55-.25,2.1-.64,4.14-.83,6.24-.19,1.91-.13,3.76-.32,5.67-.25,3.19-.57,6.37-.89,9.56-.25,2.61-.45,5.16-.7,7.77-.25,2.99-.51,5.99-.83,8.98-.25,2.99-.57,5.99-.83,8.98-.25,2.74-.45,5.42-.7,8.16-.25,2.87-.51,5.73-.76,8.6-.25,2.99-.57,5.99-.83,8.92-.25,2.8-.38,5.61-.76,8.35-.45,2.87-.38,5.73-.76,8.6-.38,2.8-.38,5.61-.83,8.35-.45,2.99-.19,5.99-.83,8.92-.57,2.74-.32,5.48-.7,8.16-.45,2.99-.57,5.99-.89,8.92-.06.76.06,1.66-1.02,2.1-.19-.38-.57-.7-.64-1.08-.25-2.23-.89-4.52-.45-6.82.06-.25,0-.51-.06-.76-.32-2.17-.96-4.27-.89-6.37.06-2.87-.83-5.54-.83-8.35.06-2.93-.83-5.8-.83-8.73.06-2.87-.83-5.67-.76-8.54,0-2.93-.83-5.8-.83-8.73.06-2.8-.83-5.54-.76-8.35.06-2.99-.89-5.93-.83-8.92.06-2.8-.83-5.42-.76-8.16.06-3.06-.89-6.05-.83-9.11.06-2.8-.83-5.42-.76-8.16.06-3.06-.89-6.05-.83-9.11.06-2.74-.76-5.29-.76-7.96.06-3.12-.89-6.18-.83-9.3,0-2.61-.76-5.16-.7-7.77.06-3.12-.89-6.18-.83-9.3.06-2.68-.76-5.16-.7-7.77.06-3.12-.76-6.18-.89-9.3-.13-2.87-.32-5.86.13-8.67.83-5.22,3.38-9.56,8.22-12.17.64-.32,1.27-.7,1.85-1.08,3.06.13,6.12.13,9.11.13h0Z"/>
    <path class="cls-4" d="M423.25,294.63c-.96-1.66-.19-3.12,0-4.52.25-2.29.7-4.59,1.02-6.88.38-2.17.76-4.4,1.15-6.56.45-2.23.83-4.46,1.27-6.63.57-2.74,1.15-5.48,1.78-8.22.89-3.7,1.85-7.39,2.8-11.09,1.78-7.07,3.95-14.02,6.37-20.9,2.36-6.63,4.91-13.19,8.22-19.37,4.52-8.47,9.88-16.5,15.61-24.28,4.52-6.18,9.37-12.17,14.97-17.39,4.52-4.21,8.98-8.54,14.21-11.92,4.01-2.61,8.16-4.91,12.87-5.8,2.17-.38,4.52-1.34,6.88-.19,3.25-.32,5.8,1.34,8.22,3.19,2.48,1.78,4.08,4.27,4.84,7.26.19.76,0,1.66.13,2.48.51,5.86-2.74,9.37-7.45,11.92-8.41,4.46-16.31,9.68-23.96,15.42-5.35,4.01-10.51,8.16-15.67,12.42-4.14,3.44-8.28,7.01-12.11,10.77-5.67,5.61-10.39,11.92-14.65,18.61-5.29,8.41-9.81,17.14-13.64,26.25-2.17,5.22-4.21,10.51-6.12,15.87-1.66,4.59-3.12,9.24-4.59,13.83-.38,1.27-.7,2.55-.96,3.82,0,.7-.25,1.34-1.21,1.91h0Z"/>
    <path class="cls-4" d="M373.94,294.63c-.32-.57-.76-1.15-.96-1.72-1.4-4.52-2.61-9.11-4.08-13.57-3.06-9.24-6.5-18.35-10.83-27.14-2.61-5.29-5.35-10.58-8.28-15.74-4.21-7.33-9.18-14.15-14.97-20.33-5.16-5.42-10.9-10.19-16.57-14.97-10.45-8.73-21.41-16.69-33.2-23.51-1.27-.7-2.55-1.34-3.82-2.04-3.31-1.78-5.86-4.27-7.07-7.9-.32-.96-.7-1.85-.25-2.87.13-.25.06-.51,0-.76-.51-5.03,2.36-8.28,6.12-10.9,1.98-1.4,4.21-2.74,6.95-2.36,6.12-1.15,11.41,1.21,16.57,3.95,4.52,2.48,8.54,5.67,12.3,9.24,1.72,1.66,3.63,3.06,5.29,4.71,8.09,7.84,14.78,16.82,21.03,26.12,3.89,5.86,7.77,11.79,10.77,18.16,2.17,4.65,4.08,9.37,5.93,14.21,1.59,4.14,3.06,8.41,4.33,12.68,1.59,5.48,2.99,11.02,4.4,16.5.7,2.61,1.34,5.22,1.91,7.84.76,3.5,1.4,7.07,2.1,10.58.25,1.47.57,2.93.83,4.46.51,3.19.96,6.31,1.53,9.49.13.89.51,1.78.64,2.68.13.96.13,1.91.13,2.87-.32.13-.51.19-.76.32h0Z"/>
  </g>
</svg>